<?xml version="1.0" encoding="UTF-8"?>
<svg version="1.1" xmlns="http://www.w3.org/2000/svg" width="1280" height="720">
<path d="M0 0 C11.22 0 22.44 0 34 0 C34.495 0.99 34.495 0.99 35 2 C33.49650603 5.00698793 30.9581052 5.58257459 28 7 C23.73125051 11.26874949 26.35450035 18.97349405 26 25 C38.21 25 50.42 25 63 25 C62.67 19.39 62.34 13.78 62 8 C58.36893239 4.94729537 58.36893239 4.94729537 55 4 C55 2.68 55 1.36 55 0 C66.22 0 77.44 0 89 0 C89 1.32 89 2.64 89 4 C88.05125 4.061875 87.1025 4.12375 86.125 4.1875 C85.09375 4.455625 84.0625 4.72375 83 5 C80.81861507 8.92276922 80.74208764 12.48949926 80.7253418 16.9140625 C80.7176754 17.92723541 80.7176754 17.92723541 80.70985413 18.96087646 C80.69601135 21.18234236 80.69691055 23.40349624 80.69921875 25.625 C80.69532943 27.17529413 80.69099427 28.7255872 80.68623352 30.27587891 C80.67878316 33.52054301 80.67905436 36.76509826 80.68432617 40.00976562 C80.69012511 44.16261807 80.67317416 48.31502515 80.6499815 52.46780396 C80.63523449 55.66775099 80.63437366 58.86759092 80.63749123 62.06756592 C80.63697869 63.59854007 80.63175364 65.12952033 80.62167931 66.66046143 C80.60931035 68.80257979 80.6161079 70.94383248 80.62768555 73.0859375 C80.62705612 74.3032959 80.6264267 75.5206543 80.6257782 76.77490234 C81.03632048 80.31301519 81.84790065 82.18683896 84 85 C86.57099402 86.34689915 86.57099402 86.34689915 89 87 C89 87.99 89 88.98 89 90 C77.78 90 66.56 90 55 90 C55.495 88.02 55.495 88.02 56 86 C56.61875 85.896875 57.2375 85.79375 57.875 85.6875 C60.36526484 85.12474627 60.36526484 85.12474627 62 82 C62.32700156 79.71909256 62.32700156 79.71909256 62.31884766 77.16137695 C62.33871735 76.1805867 62.35858704 75.19979645 62.37905884 74.18928528 C62.39061005 73.13295395 62.40216125 72.07662262 62.4140625 70.98828125 C62.43342865 69.90491989 62.4527948 68.82155853 62.4727478 67.70536804 C62.53258344 64.24115907 62.5789453 60.77691695 62.625 57.3125 C62.66317607 54.96548021 62.70222758 52.61847448 62.7421875 50.27148438 C62.83993786 44.51439561 62.9194761 38.75745881 63 33 C50.79 33 38.58 33 26 33 C26.07395806 39.76333752 26.15675314 46.52534238 26.26245117 53.28808594 C26.29571251 55.58879708 26.32374063 57.88959006 26.34643555 60.19042969 C26.37995873 63.49709968 26.4322746 66.80301888 26.48828125 70.109375 C26.49467117 71.13867126 26.5010611 72.16796753 26.50764465 73.22845459 C26.53733589 74.66949554 26.53733589 74.66949554 26.56762695 76.13964844 C26.57873001 76.98348083 26.58983307 77.82731323 26.60127258 78.69671631 C27.08940434 81.51645197 28.06753825 82.91639281 30 85 C31.32860925 85.35169068 32.66158328 85.68770276 34 86 C34.33 86.99 34.66 87.98 35 89 C34 90 34 90 30.85717773 90.11352539 C29.46597303 90.11336633 28.07476239 90.10767506 26.68359375 90.09765625 C25.95253922 90.0962413 25.22148468 90.09482635 24.46827698 90.09336853 C22.12464368 90.08775408 19.78110461 90.07519922 17.4375 90.0625 C15.85221492 90.05748686 14.26692834 90.05292363 12.68164062 90.04882812 C8.7877239 90.03777997 4.89387795 90.02050572 1 90 C1 88.68 1 87.36 1 86 C2.175625 85.5978125 2.175625 85.5978125 3.375 85.1875 C6.28114923 84.15185568 6.28114923 84.15185568 8 81 C8.30573636 77.85913611 8.30573636 77.85913611 8.25878906 74.22119141 C8.2622937 73.53628128 8.26579834 72.85137115 8.26940918 72.14570618 C8.27821338 69.88088857 8.27238081 67.61638331 8.265625 65.3515625 C8.26697234 63.77599019 8.26891345 62.20041829 8.27142334 60.62484741 C8.27437308 57.32114711 8.27008297 54.01755492 8.26074219 50.71386719 C8.24936639 46.48481414 8.25589609 42.25601547 8.26788712 38.02697182 C8.27512576 34.77212622 8.27280826 31.51734057 8.26763153 28.26249313 C8.26629961 26.70361679 8.26792672 25.14473496 8.27259064 23.58586502 C8.27768679 21.40296342 8.2699018 19.22046905 8.25878906 17.03759766 C8.25719788 15.79644196 8.25560669 14.55528625 8.25396729 13.27651978 C8.00300629 10.03878517 7.56248654 7.8386237 6 5 C2.97017694 3.62810173 2.97017694 3.62810173 0 3 C0 2.01 0 1.02 0 0 Z " fill="#CFA833" transform="translate(234,235)"/>
<path d="M0 0 C1.06412109 -0.01998047 2.12824219 -0.03996094 3.22460938 -0.06054688 C16.20658368 -0.05262621 26.90838301 4.73875475 36.25 13.6875 C38.6875 16.4375 38.6875 16.4375 38.6875 18.4375 C39.3475 18.4375 40.0075 18.4375 40.6875 18.4375 C41.84629664 20.61894224 42.98937378 22.80653017 44.125 25 C44.45048828 25.60908203 44.77597656 26.21816406 45.11132812 26.84570312 C49.94201762 36.25807751 50.26722437 49.75599999 47.875 60.0625 C45.53483387 66.71349847 42.09479078 72.9130408 37.6875 78.4375 C37.0275 78.4375 36.3675 78.4375 35.6875 78.4375 C35.6875 79.0975 35.6875 79.7575 35.6875 80.4375 C30.27573529 84.4375 30.27573529 84.4375 27.6875 84.4375 C27.6875 85.0975 27.6875 85.7575 27.6875 86.4375 C14.42778364 93.83234182 0.07114818 95.61348806 -14.6875 91.8125 C-20.67249626 89.90081383 -25.39917685 87.31107426 -30.3125 83.4375 C-31.34375 82.715625 -32.375 81.99375 -33.4375 81.25 C-40.64712728 75.04449908 -46.30731312 64.24445299 -47.1875 54.80078125 C-47.76320812 43.91629959 -46.99752473 34.70292602 -43.3125 24.4375 C-42.6525 24.4375 -41.9925 24.4375 -41.3125 24.4375 C-41.1578125 23.6021875 -41.1578125 23.6021875 -41 22.75 C-40.17071592 19.9605899 -38.96950944 17.8235936 -37.3125 15.4375 C-36.6525 15.4375 -35.9925 15.4375 -35.3125 15.4375 C-34.9825 14.4475 -34.6525 13.4575 -34.3125 12.4375 C-33.6525 12.4375 -32.9925 12.4375 -32.3125 12.4375 C-32.3125 11.7775 -32.3125 11.1175 -32.3125 10.4375 C-29.96875 8.81640625 -29.96875 8.81640625 -26.8125 7 C-25.7915625 6.40316406 -24.770625 5.80632812 -23.71875 5.19140625 C-15.59057225 1.00614041 -9.19218575 -0.06058361 0 0 Z M-18.3125 13.4375 C-18.3125 14.0975 -18.3125 14.7575 -18.3125 15.4375 C-19.3025 15.7675 -20.2925 16.0975 -21.3125 16.4375 C-21.3125 17.0975 -21.3125 17.7575 -21.3125 18.4375 C-21.9725 18.4375 -22.6325 18.4375 -23.3125 18.4375 C-23.94282133 19.64306604 -24.5664497 20.85213189 -25.1875 22.0625 C-25.53554688 22.73539062 -25.88359375 23.40828125 -26.2421875 24.1015625 C-31.97542667 36.61425236 -30.37602701 50.61734686 -25.796875 63.23828125 C-24.24442679 66.58421569 -22.53775517 69.49571266 -20.3125 72.4375 C-19.6525 72.4375 -18.9925 72.4375 -18.3125 72.4375 C-18.07015625 73.03304687 -17.8278125 73.62859375 -17.578125 74.2421875 C-14.84306202 78.98633995 -9.16249235 81.58958684 -4.3125 83.8125 C3.86471591 85.51608665 10.26489189 84.27059123 17.6875 80.4375 C19.95057444 79.01883141 19.95057444 79.01883141 21.6875 77.4375 C21.6875 76.7775 21.6875 76.1175 21.6875 75.4375 C22.3475 75.4375 23.0075 75.4375 23.6875 75.4375 C29.42919728 68.2140744 31.2413034 60.1564954 31.125 51.0625 C31.11815186 50.23250488 31.11130371 49.40250977 31.10424805 48.54736328 C30.93090877 41.89814657 29.73594602 36.39672029 26.6875 30.4375 C26.26726562 29.59445312 25.84703125 28.75140625 25.4140625 27.8828125 C23.5291392 24.30717012 21.80506224 21.08370667 18.6875 18.4375 C18.0275 18.4375 17.3675 18.4375 16.6875 18.4375 C16.1925 16.9525 16.1925 16.9525 15.6875 15.4375 C8.78058417 9.82733714 1.88829371 8.62295392 -6.828125 8.9609375 C-11.4548039 9.59373439 -14.42361483 10.89781989 -18.3125 13.4375 Z " fill="#D0A932" transform="translate(915.3125,233.5625)"/>
<path d="M0 0 C5.90412196 -0.04987886 11.80811804 -0.0859438 17.71240234 -0.10986328 C19.71600484 -0.11984748 21.71959305 -0.13343955 23.72314453 -0.15087891 C52.59384727 -0.39566791 52.59384727 -0.39566791 63 6 C64.09248047 6.63228516 64.09248047 6.63228516 65.20703125 7.27734375 C75.81311928 13.79999755 83.77810515 23.87637505 87 36 C87.44257716 39.98743975 87.46490607 43.92873899 87.4375 47.9375 C87.45748047 48.97068359 87.47746094 50.00386719 87.49804688 51.06835938 C87.49235712 60.05247902 84.94508571 66.50643371 80 73.9375 C79.525625 74.66839844 79.05125 75.39929688 78.5625 76.15234375 C76.85201274 78.17499494 75.33699926 78.83636912 73 80 C72.505 81.485 72.505 81.485 72 83 C69.41015625 84.5703125 69.41015625 84.5703125 66.0625 86.125 C64.98097656 86.64320313 63.89945313 87.16140625 62.78515625 87.6953125 C54.94102989 90.78343646 45.81266694 90.14051096 37.5234375 90.09765625 C36.47217682 90.0962413 35.42091614 90.09482635 34.33779907 90.09336853 C31.01683572 90.08782087 27.69594259 90.07527842 24.375 90.0625 C22.1080739 90.05747823 19.84114673 90.05291651 17.57421875 90.04882812 C12.04945566 90.03786865 6.52473285 90.02118357 1 90 C0.67 89.01 0.34 88.02 0 87 C1.423125 86.4121875 1.423125 86.4121875 2.875 85.8125 C6.52020172 83.698283 6.84687061 82.92953764 8 79 C8.30770515 75.83041732 8.30770515 75.83041732 8.2746582 72.37719727 C8.27976913 71.73261566 8.28488007 71.08803406 8.29014587 70.42391968 C8.30398421 68.30465265 8.30308957 66.18571294 8.30078125 64.06640625 C8.30467128 62.58576844 8.30900658 61.10513173 8.31376648 59.62449646 C8.32121623 56.52526223 8.32094643 53.42614194 8.31567383 50.3269043 C8.30987996 46.36471229 8.32681382 42.40298787 8.3500185 38.44087315 C8.36478423 35.38414302 8.36562372 32.32752478 8.36250877 29.2707653 C8.36302053 27.8103944 8.36823093 26.350017 8.37832069 24.88968086 C8.39072397 22.84354803 8.38387148 20.79831678 8.37231445 18.75219727 C8.37294388 17.59035416 8.3735733 16.42851105 8.3742218 15.23146057 C7.94766179 11.54805179 6.93123733 9.15096617 5 6 C3.35394174 4.96642853 1.69036558 3.95939668 0 3 C0 2.01 0 1.02 0 0 Z M27 10 C24.72812185 16.79596887 24.70460161 24.00166684 24.734375 31.08984375 C24.73246155 32.11501602 24.7305481 33.14018829 24.72857666 34.19642639 C24.7272243 36.35027311 24.73085388 38.50412824 24.73925781 40.65795898 C24.74995957 43.92515681 24.73933548 47.1918035 24.7265625 50.45898438 C24.72788448 52.56510536 24.73044766 54.67122601 24.734375 56.77734375 C24.73032654 57.73914047 24.72627808 58.70093719 24.72210693 59.69187927 C24.7659216 66.14064934 24.98282684 72.82645135 27 79 C33.11106648 83.07404432 39.97770788 82.45412596 47 81.25 C51.64251222 80.27038733 55.04014064 78.58251698 59 76 C59 75.34 59 74.68 59 74 C59.99 73.67 60.98 73.34 62 73 C62 72.34 62 71.68 62 71 C62.66 71 63.32 71 64 71 C70.00493637 63.42855849 71.02506031 52.27110102 70 43 C68.29198057 34.64356086 65.63127768 27.17468428 61 20 C60.34 20 59.68 20 59 20 C58.505 18.515 58.505 18.515 58 17 C54.37039924 14.02797988 54.37039924 14.02797988 50 13 C50 12.34 50 11.68 50 11 C47.93918639 10.49309416 45.87626474 9.99475381 43.8125 9.5 C42.08966797 9.08234375 42.08966797 9.08234375 40.33203125 8.65625 C35.58534062 7.7213801 31.09457362 7.12273205 27 10 Z " fill="#CFA933" transform="translate(733,235)"/>
<path d="M0 0 C5.01095943 0.8499415 9.80894635 1.06238247 14.6484375 -0.55078125 C20.09198589 20.24357359 20.09198589 20.24357359 19.6484375 28.44921875 C16.16693479 27.05807436 15.00054238 25.80640273 13.5234375 22.38671875 C12.30014322 19.26662718 12.30014322 19.26662718 9.6484375 17.44921875 C9.6484375 16.78921875 9.6484375 16.12921875 9.6484375 15.44921875 C9.0090625 15.20171875 8.3696875 14.95421875 7.7109375 14.69921875 C4.6484375 13.44921875 4.6484375 13.44921875 2.83984375 12.42578125 C-4.9913827 8.25110099 -14.34620265 7.967406 -22.80859375 10.47265625 C-23.64777344 10.79492188 -24.48695313 11.1171875 -25.3515625 11.44921875 C-25.6815625 14.41921875 -26.0115625 17.38921875 -26.3515625 20.44921875 C-19.71778793 24.67071166 -12.08893015 27.70493065 -4.4140625 29.44921875 C6.08429651 31.86850233 18.1730931 35.4479587 25.078125 44.27734375 C26.1484375 46.07421875 26.1484375 46.07421875 27.6484375 49.44921875 C28.00164062 50.2278125 28.35484375 51.00640625 28.71875 51.80859375 C31.4112073 59.4560775 29.90428957 67.62676187 26.9296875 74.95703125 C25.06101168 78.59183361 22.79810169 81.81249987 19.6484375 84.44921875 C18.9884375 84.44921875 18.3284375 84.44921875 17.6484375 84.44921875 C17.6484375 85.10921875 17.6484375 85.76921875 17.6484375 86.44921875 C15.77699055 87.26986944 13.90109414 88.08037715 12.0234375 88.88671875 C10.97929688 89.33917969 9.93515625 89.79164063 8.859375 90.2578125 C-2.15753262 94.34559453 -13.85071362 92.79963492 -24.99609375 90.1171875 C-29.81146797 89.15859729 -34.46615591 89.18002288 -39.3515625 89.44921875 C-39.73248047 87.81726563 -39.73248047 87.81726563 -40.12109375 86.15234375 C-40.46868788 84.6679542 -40.81634881 83.1835803 -41.1640625 81.69921875 C-41.34420898 80.92731201 -41.52435547 80.15540527 -41.70996094 79.36010742 C-42.99044937 73.90103395 -44.36377278 68.47348843 -45.8359375 63.0625 C-46.41277663 60.13897442 -46.43860643 57.42176879 -46.3515625 54.44921875 C-44.5390625 55.01171875 -44.5390625 55.01171875 -42.3515625 56.44921875 C-41.56418841 58.1223887 -40.7863025 59.80261654 -40.109375 61.5234375 C-36.9485834 69.55575841 -31.95776523 74.74957104 -24.12890625 78.51953125 C-12.11592637 83.14508986 -2.31097025 81.435688 9.6484375 77.44921875 C12.11808682 73.47033929 12.7890919 69.51259431 12.7734375 64.88671875 C12.77601563 64.12230469 12.77859375 63.35789062 12.78125 62.5703125 C12.61235158 59.87290543 12.08573936 57.97872281 10.3515625 55.87890625 C1.943918 48.82111293 -12.87780429 46.46014607 -23.3515625 43.38671875 C-28.16738528 41.9318771 -32.14150942 40.19064866 -36.3515625 37.44921875 C-36.3515625 36.78921875 -36.3515625 36.12921875 -36.3515625 35.44921875 C-37.3415625 35.11921875 -38.3315625 34.78921875 -39.3515625 34.44921875 C-42.1340439 30.05995231 -42.76044659 26.59959971 -42.7265625 21.44921875 C-42.73429687 20.27359375 -42.74203125 19.09796875 -42.75 17.88671875 C-42.1870909 13.03024811 -40.76006611 9.8084377 -37.23046875 6.40234375 C-36.46605469 5.8403125 -35.70164062 5.27828125 -34.9140625 4.69921875 C-34.15222656 4.126875 -33.39039063 3.55453125 -32.60546875 2.96484375 C-22.91458224 -3.55173158 -10.9445377 -2.21085933 0 0 Z " fill="#D0A932" transform="translate(536.3515625,234.55078125)"/>
<path d="M0 0 C4.40372755 0.84556171 7.18354457 1.16125439 11.28198242 -1.10839844 C16.72553081 19.6859564 16.72553081 19.6859564 16.28198242 27.89160156 C13.88573205 26.92513052 12.54848241 26.33290262 11.19213867 24.08691406 C10.91241211 23.40371094 10.63268555 22.72050781 10.34448242 22.01660156 C8.53899868 18.17735453 6.94872387 16.20324291 3.28198242 13.89160156 C2.62842773 13.446875 1.97487305 13.00214844 1.30151367 12.54394531 C-7.08556156 7.50046121 -16.72697466 7.59009913 -26.11645508 9.62988281 C-28.87098124 10.63006874 -28.87098124 10.63006874 -29.74145508 13.05566406 C-29.8574707 13.86777344 -29.97348633 14.67988281 -30.09301758 15.51660156 C-30.22450195 16.33386719 -30.35598633 17.15113281 -30.49145508 17.99316406 C-30.5662207 18.61964844 -30.64098633 19.24613281 -30.71801758 19.89160156 C-30.05801758 19.89160156 -29.39801758 19.89160156 -28.71801758 19.89160156 C-28.38801758 20.55160156 -28.05801758 21.21160156 -27.71801758 21.89160156 C-25.39310281 22.92388794 -23.10474413 23.83749584 -20.71801758 24.70410156 C-20.00758301 24.96763428 -19.29714844 25.23116699 -18.56518555 25.50268555 C-13.38342361 27.38670475 -8.14994578 28.96606651 -2.84301758 30.45410156 C6.64442111 33.13356346 17.17105596 36.4084781 22.46948242 45.32910156 C26.51176869 53.27428492 27.63205284 60.03873946 25.59448242 68.87207031 C23.65993389 74.71601901 21.07695758 79.87752236 16.28198242 83.89160156 C15.62198242 83.89160156 14.96198242 83.89160156 14.28198242 83.89160156 C14.28198242 84.55160156 14.28198242 85.21160156 14.28198242 85.89160156 C12.41053547 86.71225225 10.53463907 87.52275996 8.65698242 88.32910156 C7.6128418 88.7815625 6.56870117 89.23402344 5.49291992 89.70019531 C-5.32721211 93.7149645 -17.14794957 92.45773558 -28.07348633 89.54785156 C-32.9753617 88.66519876 -37.75185654 88.770735 -42.71801758 88.89160156 C-43.7238569 84.87359449 -44.72043885 80.85341252 -45.70874023 76.83105469 C-46.04576106 75.46487629 -46.38524317 74.09930249 -46.72729492 72.734375 C-47.22037958 70.76491148 -47.70437942 68.79339617 -48.18676758 66.82128906 C-48.4800293 65.63776855 -48.77329102 64.45424805 -49.07543945 63.23486328 C-49.692388 60.02494938 -49.83949758 57.14986886 -49.71801758 53.89160156 C-47.90551758 54.45410156 -47.90551758 54.45410156 -45.71801758 55.89160156 C-44.93159838 57.56274236 -44.15477944 59.24123337 -43.48364258 60.96191406 C-40.54897945 68.35846297 -36.40786921 73.62255162 -29.18286133 77.11816406 C-17.9292876 81.72566553 -9.25493132 81.79796007 2.28198242 77.89160156 C3.01288086 77.73175781 3.7437793 77.57191406 4.49682617 77.40722656 C6.4592261 77.05042765 6.4592261 77.05042765 7.46948242 75.07910156 C8.8250401 71.42952319 9.42017892 68.22866623 9.40698242 64.32910156 C9.40956055 63.5646875 9.41213867 62.80027344 9.41479492 62.01269531 C9.24589651 59.31528825 8.71928428 57.42110562 6.98510742 55.32128906 C-1.42253708 48.26349574 -16.24425937 45.90252888 -26.71801758 42.82910156 C-31.53384036 41.37425991 -35.50796449 39.63303148 -39.71801758 36.89160156 C-39.71801758 36.23160156 -39.71801758 35.57160156 -39.71801758 34.89160156 C-40.70801758 34.56160156 -41.69801758 34.23160156 -42.71801758 33.89160156 C-45.50049898 29.50233512 -46.12690166 26.04198252 -46.09301758 20.89160156 C-46.10075195 19.71597656 -46.10848633 18.54035156 -46.11645508 17.32910156 C-45.55354598 12.47263093 -44.12652119 9.25082051 -40.59692383 5.84472656 C-39.83250977 5.28269531 -39.0680957 4.72066406 -38.28051758 4.14160156 C-37.51868164 3.56925781 -36.7568457 2.99691406 -35.97192383 2.40722656 C-25.28381196 -4.77992665 -11.92930869 -2.46118904 0 0 Z " fill="#D0A832" transform="translate(1019.718017578125,235.1083984375)"/>
<path d="M0 0 C11.88 0 23.76 0 36 0 C35.67 1.32 35.34 2.64 35 4 C33.22265625 4.6953125 33.22265625 4.6953125 31.0625 5.125 C28.92006364 5.73425118 28.92006364 5.73425118 27 7 C26.09093886 9.07891605 26.09093886 9.07891605 25.78515625 11.546875 C25.63908936 12.44873535 25.49302246 13.3505957 25.3425293 14.27978516 C24.84499243 18.231001 24.52864892 22.14589737 24.375 26.125 C24.33922852 26.98810791 24.30345703 27.85121582 24.26660156 28.74047852 C23.97676808 36.75023377 23.83535764 44.76495257 23.76983643 52.77947998 C23.75669245 54.20942311 23.73880687 55.63933112 23.71600342 57.06915283 C23.68597644 59.09671416 23.67856896 61.12457114 23.671875 63.15234375 C23.6625293 64.32788818 23.65318359 65.50343262 23.64355469 66.71459961 C24.04574039 70.42159478 25.08666094 72.81888411 27 76 C28.87053661 77.48919916 28.87053661 77.48919916 31 78.3125 C31.680625 78.61800781 32.36125 78.92351562 33.0625 79.23828125 C41.60061928 82.59500153 49.67840535 81.34597451 58 78 C58.99 77.67 59.98 77.34 61 77 C61.495 75.515 61.495 75.515 62 74 C62.66 74 63.32 74 64 74 C65.6140894 68.33473759 66.29025887 63.37374748 66.1875 57.5 C66.17960449 56.6946582 66.17170898 55.88931641 66.16357422 55.05957031 C66.12739801 52.3723405 66.067773 49.68661527 66 47 C65.97534668 46.01708984 65.95069336 45.03417969 65.92529297 44.02148438 C66.4025058 24.55051733 66.4025058 24.55051733 62 6 C59.88672575 5.09274566 59.88672575 5.09274566 57.4375 4.375 C56.61121094 4.11460937 55.78492188 3.85421875 54.93359375 3.5859375 C54.29550781 3.39257812 53.65742187 3.19921875 53 3 C53 2.01 53 1.02 53 0 C62.9 0 72.8 0 83 0 C83 1.32 83 2.64 83 4 C81.35 4.33 79.7 4.66 78 5 C76.81046769 9.24546088 76.85111004 13.37088546 76.875 17.75 C76.87693359 18.61890869 76.87886719 19.48781738 76.88085938 20.38305664 C76.92558394 27.40916123 77.18622633 34.41887852 77.5 41.4375 C77.66830916 45.29159759 77.83528217 49.14574722 78 53 C78.04737305 54.07096924 78.04737305 54.07096924 78.09570312 55.16357422 C78.50632233 65.37904299 77.67620985 73.18913899 71.0625 81.3125 C64.37058331 88.2782267 55.48868854 91.56907816 45.94140625 92.203125 C34.99506266 92.35498179 23.2615029 92.1055325 14.61328125 84.60546875 C14.08089844 84.07566406 13.54851563 83.54585938 13 83 C12.49855469 82.50113281 11.99710938 82.00226563 11.48046875 81.48828125 C5.58059717 75.01032427 5.70711987 68.2144507 5.8125 59.9375 C5.81894531 58.88054932 5.82539062 57.82359863 5.83203125 56.73461914 C5.90677062 48.92377076 6.22126112 41.13639505 6.6394043 33.33740234 C7.45673754 19.11410174 7.45673754 19.11410174 6 5 C3.69 4.34 1.38 3.68 -1 3 C-0.67 2.01 -0.34 1.02 0 0 Z " fill="#CFA932" transform="translate(645,235)"/>
<path d="M0 0 C1.05896484 -0.01998047 2.11792969 -0.03996094 3.20898438 -0.06054688 C12.86946019 -0.05459464 22.33176887 2.52075108 29.4375 9.4375 C31.05162941 11.71106033 32.20059583 13.91611842 33.4375 16.4375 C33.9325 17.4275 33.9325 17.4275 34.4375 18.4375 C35.5102892 27.8473938 34.06013417 36.4065495 28.20019531 44.05175781 C25.32058656 47.48161028 22.22176749 50.67835701 19.046875 53.83398438 C17.43727165 55.43772752 15.85707443 57.06623738 14.28125 58.703125 C8.9199469 64.21753404 8.9199469 64.21753404 6.4375 66.4375 C5.7775 66.4375 5.1175 66.4375 4.4375 66.4375 C3.9425 67.9225 3.9425 67.9225 3.4375 69.4375 C2.7775 69.4375 2.1175 69.4375 1.4375 69.4375 C0.9425 70.9225 0.9425 70.9225 0.4375 72.4375 C-1.125 74.125 -1.125 74.125 -2.5625 75.4375 C16.90407625 76.81007686 16.90407625 76.81007686 34.4375 70.4375 C35.80571051 68.46119593 37.14701192 66.46540984 38.4375 64.4375 C39.4275 64.4375 40.4175 64.4375 41.4375 64.4375 C40.83377779 70.11248877 39.35122149 75.07570764 37.4375 80.4375 C37.11394531 81.42234375 36.79039062 82.4071875 36.45703125 83.421875 C36.12058594 84.41703125 35.78414063 85.4121875 35.4375 86.4375 C35.128125 87.365625 34.81875 88.29375 34.5 89.25 C34.149375 89.971875 33.79875 90.69375 33.4375 91.4375 C30.14968311 92.53343896 27.80471873 92.5345887 24.34545898 92.4909668 C23.09083359 92.4773259 21.83620819 92.463685 20.54356384 92.44963074 C19.17356768 92.42906454 17.80357768 92.40808395 16.43359375 92.38671875 C15.03019952 92.3674861 13.62680286 92.34843031 12.22340393 92.32954407 C9.28371508 92.28858014 6.3441263 92.24335545 3.40454102 92.19555664 C-0.36726154 92.13486893 -4.1390966 92.08800631 -7.91113377 92.04472637 C-10.80823815 92.00941775 -13.70515518 91.96517504 -16.60209465 91.91837502 C-17.99314924 91.89729841 -19.38425577 91.8794054 -20.77539253 91.8647213 C-22.71700523 91.84321151 -24.6584523 91.80804759 -26.59985352 91.7722168 C-27.70555191 91.75587692 -28.81125031 91.73953705 -29.95045471 91.72270203 C-32.5625 91.4375 -32.5625 91.4375 -34.5625 89.4375 C-25.19447368 80.79895114 -25.19447368 80.79895114 -20.25 77.1875 C-15.86231269 73.98043538 -12.27922212 70.35058967 -8.875 66.125 C-8.111875 65.238125 -7.34875 64.35125 -6.5625 63.4375 C-5.9025 63.4375 -5.2425 63.4375 -4.5625 63.4375 C-4.2325 62.4475 -3.9025 61.4575 -3.5625 60.4375 C-2.9025 60.4375 -2.2425 60.4375 -1.5625 60.4375 C-1.2325 59.4475 -0.9025 58.4575 -0.5625 57.4375 C0.0975 57.4375 0.7575 57.4375 1.4375 57.4375 C1.67597656 56.91800781 1.91445313 56.39851563 2.16015625 55.86328125 C4.18596786 52.01609774 6.65792871 48.44564335 9.07226562 44.83398438 C15.19392437 35.49361654 17.60826391 26.53251556 15.4375 15.4375 C14.4475 15.1075 13.4575 14.7775 12.4375 14.4375 C12.4375 13.7775 12.4375 13.1175 12.4375 12.4375 C5.08246845 9.87922816 -1.99988123 9.11736106 -9.375 12.0625 C-14.6633683 14.69734074 -18.51654656 18.81112804 -20.5625 24.4375 C-20.94999213 26.76245277 -21.29232839 29.09601268 -21.5625 31.4375 C-22.5525 31.4375 -23.5425 31.4375 -24.5625 31.4375 C-25.40561119 28.21080584 -26.23523868 24.98079082 -27.0625 21.75 C-27.30097656 20.83798828 -27.53945313 19.92597656 -27.78515625 18.98632812 C-28.01074219 18.10009766 -28.23632812 17.21386719 -28.46875 16.30078125 C-28.67822266 15.48907471 -28.88769531 14.67736816 -29.10351562 13.84106445 C-29.58522289 11.318507 -29.64224843 8.99941817 -29.5625 6.4375 C-20.2580738 1.15660945 -10.5625455 -0.07097618 0 0 Z " fill="#D0A932" transform="translate(361.5625,233.5625)"/>
<path d="M0 0 C23.1 0 46.2 0 70 0 C76 22 76 22 76 28 C75.01 28 74.02 28 73 28 C71.5703125 26.171875 71.5703125 26.171875 70.125 23.75 C66.50237414 18.02391396 62.17632429 13.7567636 55.42578125 12.1484375 C54.05599901 11.88374528 52.68483061 11.62614547 51.3125 11.375 C50.61060547 11.2409375 49.90871094 11.106875 49.18554688 10.96875 C47.45818294 10.6397283 45.72923409 10.31904688 44 10 C44.08426614 19.61400106 44.17909534 29.22782224 44.28752708 38.84158134 C44.33753835 43.30532581 44.38386776 47.76904606 44.421875 52.23291016 C44.45866706 56.53832281 44.50501001 60.84353509 44.55806351 65.14877701 C44.57663991 66.79382956 44.59173579 68.43892511 44.60334396 70.0840416 C44.62015128 72.38289799 44.64917179 74.68129224 44.68115234 76.97998047 C44.69447601 78.2901413 44.70779968 79.60030212 44.7215271 80.95016479 C44.68194277 84.10852996 44.68194277 84.10852996 47 86 C48.64991582 86.70710678 50.31562256 87.37943989 52 88 C52 88.99 52 89.98 52 91 C41.11 91 30.22 91 19 91 C19 89.68 19 88.36 19 87 C20.65 87 22.3 87 24 87 C25.74376021 82.46285702 26.26707115 78.65100226 26.31884766 73.80126953 C26.33391609 72.76120003 26.33391609 72.76120003 26.34928894 71.70011902 C26.37996958 69.42769129 26.39711343 67.15538054 26.4140625 64.8828125 C26.43278636 63.29954024 26.45236068 61.71627784 26.4727478 60.13302612 C26.52394644 55.9804466 26.56363754 51.82783478 26.60089111 47.67510986 C26.64100796 43.43176359 26.69206516 39.18855029 26.7421875 34.9453125 C26.83880141 26.63029938 26.92325236 18.31522011 27 10 C24.26318702 10.59973603 21.5296807 11.21060797 18.796875 11.828125 C18.02585449 11.99586426 17.25483398 12.16360352 16.46044922 12.33642578 C9.56478868 13.91067626 4.60331194 16.17444346 0.52734375 22.1640625 C-0.32475908 23.57015639 -1.13746846 25.00147349 -1.89453125 26.4609375 C-2.25933594 26.96882813 -2.62414062 27.47671875 -3 28 C-3.99 28 -4.98 28 -6 28 C-4.43077648 18.58465887 -2.11542087 9.30785183 0 0 Z " fill="#CFA932" transform="translate(570,234)"/>
<path d="M0 0 C10.89 0 21.78 0 33 0 C32.67 1.32 32.34 2.64 32 4 C31.01 4.5775 30.02 5.155 29 5.75 C25.67668267 7.7247972 25.67668267 7.7247972 25.32080078 11.30053711 C24.77894604 17.33132431 24.8572096 23.39174692 24.8671875 29.44140625 C24.86623077 30.72305161 24.86527405 32.00469696 24.86428833 33.32518005 C24.86282176 36.02563699 24.86493257 38.72606064 24.86962891 41.42651367 C24.87533132 44.87158381 24.87203733 48.31657611 24.86605644 51.76164341 C24.86155606 55.07157045 24.86471485 58.38147701 24.8671875 61.69140625 C24.86516327 62.9207338 24.86313904 64.15006134 24.86105347 65.41664124 C24.37932629 76.21285743 24.37932629 76.21285743 28 86 C30.55519921 86.81171228 30.55519921 86.81171228 33 87 C33 87.99 33 88.98 33 90 C22.11 90 11.22 90 0 90 C0 88.68 0 87.36 0 86 C0.598125 85.95875 1.19625 85.9175 1.8125 85.875 C4.27427809 85.14351111 4.27427809 85.14351111 5.6134491 82.35861206 C7.1068314 78.74122463 7.374474 76.28147614 7.37231445 72.38720703 C7.37854324 71.09211212 7.38477203 69.79701721 7.39118958 68.462677 C7.38249883 67.06105157 7.37318055 65.65942991 7.36328125 64.2578125 C7.36276187 62.80581666 7.36328257 61.3538201 7.36479187 59.90182495 C7.36470237 56.86396738 7.35432195 53.82637643 7.33618164 50.78857422 C7.31353583 46.91299275 7.31294551 43.0378017 7.31969929 39.16217232 C7.32305706 36.16454661 7.31637465 33.16700832 7.30657005 30.16939926 C7.30274582 28.74139744 7.3015582 27.31338584 7.3031559 25.88537979 C7.30451564 18.61537349 7.22889972 11.9556756 5 5 C3.35 4.67 1.7 4.34 0 4 C0 2.68 0 1.36 0 0 Z " fill="#D0A934" transform="translate(412,235)"/>
<path d="M0 0 C11.22 0 22.44 0 34 0 C33.67 1.32 33.34 2.64 33 4 C32.195625 4.28875 31.39125 4.5775 30.5625 4.875 C27.74338067 5.7653337 27.74338067 5.7653337 26.85601807 8.6550293 C25.96723524 12.12803136 25.74620352 15.06427886 25.74121094 18.64453125 C25.73490662 19.94608154 25.72860229 21.24763184 25.72210693 22.58862305 C25.72568705 23.99658342 25.7297891 25.40454255 25.734375 26.8125 C25.73302618 28.26928777 25.73108384 29.72607509 25.72857666 31.18286133 C25.7256356 34.2290477 25.72989013 37.27511641 25.73925781 40.32128906 C25.75065181 44.21498482 25.74408687 48.1084048 25.73211288 52.00209045 C25.72486669 55.00819963 25.72719485 58.01424403 25.73236847 61.02035522 C25.73369734 62.45559726 25.73208411 63.89084528 25.72740936 65.32608032 C25.72229892 67.33587523 25.73147617 69.34569092 25.74121094 71.35546875 C25.74280212 72.49653076 25.74439331 73.63759277 25.74603271 74.81323242 C26.01727232 78.21673212 26.63466473 80.87143942 28 84 C31.0005907 85.91839859 31.0005907 85.91839859 34 87 C33.505 88.485 33.505 88.485 33 90 C22.44 90 11.88 90 1 90 C1 88.68 1 87.36 1 86 C2.175625 85.690625 2.175625 85.690625 3.375 85.375 C6.23659915 84.22838744 6.23659915 84.22838744 7.14788818 81.31687927 C8.02115983 77.91763452 8.25373221 75.05877009 8.25878906 71.55493164 C8.26509338 70.29665054 8.27139771 69.03836945 8.27789307 67.74195862 C8.27431253 66.38135639 8.27021038 65.02075546 8.265625 63.66015625 C8.26697406 62.25060459 8.26891661 60.84105338 8.27142334 59.4315033 C8.27436422 56.48366852 8.27011109 53.53595535 8.26074219 50.58813477 C8.2493587 46.82457048 8.25590657 43.06129185 8.26788712 39.29773808 C8.27514277 36.38852316 8.27280067 33.47937502 8.26763153 30.570158 C8.26630472 29.18319095 8.26790853 27.79621768 8.27259064 26.40925789 C8.48316097 16.47633174 8.48316097 16.47633174 6 7 C2.96798075 4.75592746 2.96798075 4.75592746 0 3 C0 2.01 0 1.02 0 0 Z " fill="#CFA833" transform="translate(827,235)"/>
<path d="M0 0 C3.57997706 2.62531651 4.83870692 4.09675873 5.625 8.5 C4.82883761 12.95850936 3.69186542 14.40783917 0 17 C-3.92582814 17.6198676 -6.00082919 17.58925458 -9.4375 15.5625 C-11.68195258 11.88159776 -11.86106961 8.21225944 -11 4 C-8.11893743 0.31257589 -4.55849757 -0.65121394 0 0 Z " fill="#D0A934" transform="translate(431,211)"/>
<path d="M0 0 C33.165 0.495 33.165 0.495 67 1 C65 3 65 3 62.50184631 3.24723816 C61.4494426 3.24581314 60.39703888 3.24438812 59.31274414 3.24291992 C57.52562767 3.24753487 57.52562767 3.24753487 55.70240784 3.25224304 C54.40971481 3.24505753 53.11702179 3.23787201 51.78515625 3.23046875 C50.44998723 3.22927675 49.11481736 3.22882383 47.77964783 3.2290802 C44.97942871 3.22751492 42.17933736 3.21922308 39.37915039 3.20581055 C35.79001701 3.18883704 32.20102432 3.18499575 28.61185551 3.18575573 C25.85378171 3.18548372 23.09573866 3.17999728 20.33767509 3.17275429 C18.37063344 3.168024 16.40358531 3.16629256 14.4365387 3.16459656 C12.64469398 3.15502678 12.64469398 3.15502678 10.81665039 3.14526367 C9.76345108 3.14145187 8.71025177 3.13764008 7.62513733 3.13371277 C5 3 5 3 2 2 C1.34 3.32 0.68 4.64 0 6 C0 4.02 0 2.04 0 0 Z " fill="#D4B350" transform="translate(570,234)"/>
<path d="M0 0 C30.195 0.495 30.195 0.495 61 1 C59 3 59 3 56.48165894 3.24050903 C54.88948044 3.2338472 54.88948044 3.2338472 53.26513672 3.22705078 C52.06404266 3.22689972 50.86294861 3.22674866 49.62545776 3.22659302 C48.32335358 3.21627045 47.02124939 3.20594788 45.6796875 3.1953125 C44.33733327 3.19158276 42.99497633 3.18873561 41.65261841 3.18673706 C38.117986 3.17909744 34.58351772 3.1594463 31.0489502 3.1373291 C27.4428123 3.11687765 23.83664791 3.10773685 20.23046875 3.09765625 C13.15357865 3.0762006 6.07680003 3.04206079 -1 3 C-0.67 2.01 -0.34 1.02 0 0 Z " fill="#CCA220" transform="translate(330,322)"/>
<path d="M0 0 C-0.33 0.66 -0.66 1.32 -1 2 C-7.94186777 3.51488512 -15.40912016 3.13419441 -22.4765625 3.09765625 C-23.52782318 3.0962413 -24.57908386 3.09482635 -25.66220093 3.09336853 C-28.98316428 3.08782087 -32.30405741 3.07527842 -35.625 3.0625 C-37.8919261 3.05747823 -40.15885327 3.05291651 -42.42578125 3.04882812 C-47.95054434 3.03786865 -53.47526715 3.02118357 -59 3 C-59 2.34 -59 1.68 -59 1 C-56.09784787 0.16683495 -53.54136368 -0.11817843 -50.52612305 -0.09765625 C-49.20906624 -0.09270142 -49.20906624 -0.09270142 -47.86540222 -0.08764648 C-46.92368668 -0.07934814 -45.98197113 -0.0710498 -45.01171875 -0.0625 C-43.54687798 -0.05682007 -43.54687798 -0.05682007 -42.05244446 -0.05102539 C-37.8797186 -0.03470332 -33.70709113 -0.00663149 -29.53442383 0.02050781 C-26.48519345 0.03865089 -23.43597927 0.05071112 -20.38671875 0.0625 C-18.98325447 0.07494751 -18.98325447 0.07494751 -17.55143738 0.08764648 C-13.64946119 0.1021695 -9.89478809 0.06199473 -6.03833008 -0.56640625 C-3 -1 -3 -1 0 0 Z " fill="#CCA01D" transform="translate(793,322)"/>
<path d="M0 0 C6.08722746 -0.04934154 12.1743392 -0.08569167 18.26171875 -0.10986328 C20.33367947 -0.11993712 22.40562593 -0.13359666 24.47753906 -0.15087891 C27.45120764 -0.17506664 30.4246887 -0.18646908 33.3984375 -0.1953125 C34.32868744 -0.20563507 35.25893738 -0.21595764 36.21737671 -0.22659302 C37.07811798 -0.22674408 37.93885925 -0.22689514 38.82568359 -0.22705078 C39.58513275 -0.231492 40.34458191 -0.23593323 41.12704468 -0.24050903 C43 0 43 0 45 2 C43.77369873 2.02505615 42.54739746 2.0501123 41.28393555 2.07592773 C36.7384173 2.17003054 32.19305083 2.27024433 27.64770508 2.37231445 C25.67964221 2.41565241 23.71154202 2.45732832 21.7434082 2.49731445 C18.9160639 2.55504445 16.08890729 2.61873116 13.26171875 2.68359375 C12.38037766 2.70030624 11.49903656 2.71701874 10.59098816 2.73423767 C9.3600518 2.7641555 9.3600518 2.7641555 8.10424805 2.79467773 C7.38254929 2.81022202 6.66085052 2.8257663 5.9172821 2.84178162 C3.77891856 2.94195257 3.77891856 2.94195257 1 4 C0.67 2.68 0.34 1.36 0 0 Z " fill="#D3B24C" transform="translate(733,235)"/>
<path d="M0 0 C11.22 0 22.44 0 34 0 C34 1.32 34 2.64 34 4 C33.46084961 3.83701416 32.92169922 3.67402832 32.36621094 3.50610352 C29.56604976 2.90718336 27.00450567 2.88773211 24.140625 2.90234375 C23.02558594 2.90556641 21.91054688 2.90878906 20.76171875 2.91210938 C19.02341797 2.92467773 19.02341797 2.92467773 17.25 2.9375 C16.07566406 2.94201172 14.90132813 2.94652344 13.69140625 2.95117188 C10.79421928 2.96294906 7.89713546 2.97939674 5 3 C5 3.33 5 3.66 5 4 C3.35 4 1.7 4 0 4 C0 2.68 0 1.36 0 0 Z " fill="#D5B44F" transform="translate(289,235)"/>
<path d="M0 0 C11.88 0 23.76 0 36 0 C35.67 1.32 35.34 2.64 35 4 C33.02 4 31.04 4 29 4 C29 3.67 29 3.34 29 3 C19.43 2.67 9.86 2.34 0 2 C0 1.34 0 0.68 0 0 Z " fill="#D4B34F" transform="translate(645,235)"/>
<path d="M0 0 C0.80522095 0.24339111 0.80522095 0.24339111 1.62670898 0.49169922 C4.46071878 1.09867467 7.07375742 1.12969612 9.97265625 1.1328125 C11.69258789 1.13474609 11.69258789 1.13474609 13.44726562 1.13671875 C14.64029297 1.13285156 15.83332031 1.12898438 17.0625 1.125 C18.8578418 1.13080078 18.8578418 1.13080078 20.68945312 1.13671875 C21.83478516 1.13542969 22.98011719 1.13414062 24.16015625 1.1328125 C25.20824463 1.13168457 26.25633301 1.13055664 27.33618164 1.12939453 C30.10474232 1.11499005 30.10474232 1.11499005 33 0 C33.495 1.485 33.495 1.485 34 3 C33 4 33 4 29.85717773 4.11352539 C28.46597303 4.11336633 27.07476239 4.10767506 25.68359375 4.09765625 C24.95253922 4.0962413 24.22148468 4.09482635 23.46827698 4.09336853 C21.12464368 4.08775408 18.78110461 4.07519922 16.4375 4.0625 C14.85221492 4.05748686 13.26692834 4.05292363 11.68164062 4.04882812 C7.7877239 4.03777997 3.89387795 4.02050572 0 4 C0 2.68 0 1.36 0 0 Z " fill="#D0A620" transform="translate(235,321)"/>
<path d="M0 0 C0.33 0.66 0.66 1.32 1 2 C10.57 2 20.14 2 30 2 C30 1.34 30 0.68 30 0 C31.32 0.66 32.64 1.32 34 2 C33.67 2.66 33.34 3.32 33 4 C22.11 4 11.22 4 0 4 C0 2.68 0 1.36 0 0 Z " fill="#CEA421" transform="translate(589,321)"/>
<path d="M0 0 C9.9 0 19.8 0 30 0 C30.33 0.66 30.66 1.32 31 2 C30.31373535 2.01981934 29.6274707 2.03963867 28.92041016 2.06005859 C25.82154221 2.15510945 22.72336706 2.26486847 19.625 2.375 C18.54476562 2.4059375 17.46453125 2.436875 16.3515625 2.46875 C15.3203125 2.50742188 14.2890625 2.54609375 13.2265625 2.5859375 C11.79691162 2.63306885 11.79691162 2.63306885 10.33837891 2.68115234 C7.81104824 2.78555796 7.81104824 2.78555796 6 5 C4.02 4.34 2.04 3.68 0 3 C0 2.01 0 1.02 0 0 Z " fill="#D3B24D" transform="translate(698,235)"/>
<path d="M0 0 C0.66 0.33 1.32 0.66 2 1 C2 1.99 2 2.98 2 4 C-8.89 4 -19.78 4 -31 4 C-31.33 3.34 -31.66 2.68 -32 2 C-21.44 2 -10.88 2 0 2 C0 1.34 0 0.68 0 0 Z " fill="#CCA120" transform="translate(443,321)"/>
<path d="M0 0 C0.66 0.33 1.32 0.66 2 1 C2 1.99 2 2.98 2 4 C-8.89 4 -19.78 4 -31 4 C-31 3.34 -31 2.68 -31 2 C-27.48808517 0.89038436 -24.36665772 0.96556642 -20.703125 1.12109375 C-18.89521484 1.19360352 -18.89521484 1.19360352 -17.05078125 1.26757812 C-15.16939453 1.35168945 -15.16939453 1.35168945 -13.25 1.4375 C-11.34541016 1.51581055 -11.34541016 1.51581055 -9.40234375 1.59570312 C-6.26797593 1.72531984 -3.13393126 1.86028471 0 2 C0 1.34 0 0.68 0 0 Z " fill="#CDA21F" transform="translate(321,321)"/>
<path d="M0 0 C1.03125 0.04833984 2.0625 0.09667969 3.125 0.14648438 C4.74535156 0.2305957 4.74535156 0.2305957 6.3984375 0.31640625 C7.48640625 0.36861328 8.574375 0.42082031 9.6953125 0.47460938 C12.3882956 0.604534 15.08093086 0.73950787 17.7734375 0.87890625 C17.7734375 1.20890625 17.7734375 1.53890625 17.7734375 1.87890625 C5.3984375 2.37390625 5.3984375 2.37390625 -7.2265625 2.87890625 C-7.2265625 2.21890625 -7.2265625 1.55890625 -7.2265625 0.87890625 C-4.62765096 -0.42054952 -2.89989594 -0.14340145 0 0 Z " fill="#D0AD41" transform="translate(360.2265625,309.12109375)"/>
<path d="M0 0 C3.49039065 0.78232894 5.71547109 1.78464652 8.625 3.8125 C6.875 4.4375 6.875 4.4375 4.625 4.8125 C3.28253688 4.16441436 1.95067199 3.49427416 0.625 2.8125 C-1.69995277 2.42500787 -4.03351268 2.08267161 -6.375 1.8125 C-3.375 -0.1875 -3.375 -0.1875 0 0 Z " fill="#CCA328" transform="translate(919.375,241.1875)"/>
<path d="M0 0 C0.66 0.33 1.32 0.66 2 1 C2 4.3 2 7.6 2 11 C1.01 11 0.02 11 -1 11 C-0.67 7.37 -0.34 3.74 0 0 Z " fill="#CEAC3F" transform="translate(550,294)"/>
<path d="M0 0 C0.33 0.66 0.66 1.32 1 2 C-7.03571429 4.27678571 -7.03571429 4.27678571 -11 3 C-7.14243493 0.84694043 -4.44870215 -0.39253254 0 0 Z " fill="#CBA324" transform="translate(1002,241)"/>
<path d="M0 0 C1.98 0.99 1.98 0.99 4 2 C3.67 3.32 3.34 4.64 3 6 C2.01 6 1.02 6 0 6 C0 4.02 0 2.04 0 0 Z " fill="#D4B542" transform="translate(490,289)"/>
<path d="M0 0 C1.65 0 3.3 0 5 0 C5 1.98 5 3.96 5 6 C3.0625 5.25 3.0625 5.25 1 4 C0.25 1.875 0.25 1.875 0 0 Z " fill="#CEAC3D" transform="translate(551,257)"/>
<path d="M0 0 C-1.26418246 0.69965443 -2.53665402 1.38434763 -3.8125 2.0625 C-4.52019531 2.44535156 -5.22789062 2.82820312 -5.95703125 3.22265625 C-8 4 -8 4 -11 3 C-7.18178484 -0.02823961 -4.81391924 -1.49397494 0 0 Z " fill="#CDA426" transform="translate(521,242)"/>
<path d="M0 0 C2.64 0.99 5.28 1.98 8 3 C6.375 4.1875 6.375 4.1875 4 5 C0.75 3.625 0.75 3.625 -2 2 C-1.34 1.34 -0.68 0.68 0 0 Z " fill="#D6A522" transform="translate(892,319)"/>
<path d="M0 0 C0.99 0 1.98 0 3 0 C2.74438677 2.3431213 2.40729228 4.67843403 2 7 C1.01 7.495 1.01 7.495 0 8 C0.33 6.02 0.66 4.04 1 2 C0.34 1.67 -0.32 1.34 -1 1 C-0.67 0.67 -0.34 0.34 0 0 Z " fill="#CEAE40" transform="translate(400,298)"/>
</svg>
